<svg xmlns="http://www.w3.org/2000/svg" width="48.001" height="44.122" viewBox="0 0 48.001 44.122" >
  <g>
    <path d="M21.092,32.485a.728.728,0,0,0,0-1.456H1.455V3.636A2.185,2.185,0,0,1,3.637,1.454H40.484a2.185,2.185,0,0,1,2.182,2.182v9.7a.728.728,0,0,0,1.455,0v-9.7A3.641,3.641,0,0,0,40.484,0H3.637A3.641,3.641,0,0,0,0,3.636v31.03A3.642,3.642,0,0,0,3.637,38.3h8.97v4.363H7.516a.728.728,0,0,0,0,1.456H21.092a.728.728,0,0,0,0-1.456H14.061V38.3h7.031a.728.728,0,0,0,0-1.456H3.637a2.185,2.185,0,0,1-2.182-2.182V32.483H21.092Z" fill="#18D26E"/>
    <path d="M45.334,15.516H25.94a2.669,2.669,0,0,0-2.667,2.666V41.453a2.67,2.67,0,0,0,2.667,2.668H45.334A2.67,2.67,0,0,0,48,41.453V18.182A2.669,2.669,0,0,0,45.334,15.516Zm1.213,25.937a1.213,1.213,0,0,1-1.212,1.213H25.941a1.213,1.213,0,0,1-1.212-1.213V39.271H46.547Zm0-3.634H24.729V18.182a1.212,1.212,0,0,1,1.212-1.211H45.335a1.213,1.213,0,0,1,1.212,1.211V37.819Z" fill="#18D26E"/>
    <circle cx="35.639" cy="19.15" r="0.728" fill="#1a171b"/>
    <circle cx="22.062" cy="3.633" r="0.727" fill="#1a171b"/>
  </g>
</svg>
