<svg width="105pt" height="27pt" viewBox="0 0 105 27" xmlns="http://www.w3.org/2000/svg"><g id="fontsvg1677710437004" stroke-linecap="round" fill-rule="evenodd" fill="#000000"><path d="M 29.94 0.72 L 33.93 0.72 L 33.93 7.14 Q 35.28 5.97 37.05 5.97 A 7.288 7.288 0 0 1 38.739 6.154 A 4.737 4.737 0 0 1 41.31 7.68 Q 42.499 9.064 42.726 11.429 A 12.265 12.265 0 0 1 42.78 12.6 L 42.78 21.24 L 38.73 21.24 L 38.73 12.9 A 10.091 10.091 0 0 0 38.699 12.08 Q 38.633 11.272 38.425 10.76 A 1.989 1.989 0 0 0 38.235 10.395 A 1.559 1.559 0 0 0 37.384 9.777 Q 37.11 9.689 36.772 9.667 A 3.59 3.59 0 0 0 36.54 9.66 A 3.835 3.835 0 0 0 35.827 9.722 Q 35.431 9.797 35.128 9.964 A 1.714 1.714 0 0 0 34.575 10.44 Q 34.071 11.113 34.001 12.588 A 10.468 10.468 0 0 0 33.99 13.08 L 33.99 21.24 L 29.94 21.24 L 29.94 0.72 Z M 76.29 13.44 L 81.36 21.24 L 76.68 21.24 L 73.95 16.83 L 71.25 21.24 L 66.57 21.24 L 71.58 13.44 L 66.9 6.24 L 71.61 6.24 L 73.95 10.23 L 76.32 6.24 L 81.03 6.24 L 76.29 13.44 Z M 90.78 6.24 L 94.44 6.24 L 94.44 7.53 Q 96.03 5.97 98.34 5.97 A 6.695 6.695 0 0 1 100.343 6.255 A 5.196 5.196 0 0 1 102.885 7.995 A 6.796 6.796 0 0 1 104.085 10.326 Q 104.384 11.315 104.478 12.501 A 14.267 14.267 0 0 1 104.52 13.62 Q 104.52 17.34 102.81 19.425 A 5.584 5.584 0 0 1 98.94 21.464 A 8.017 8.017 0 0 1 98.07 21.51 Q 96.24 21.51 94.8 20.25 L 94.8 26.7 L 90.78 26.7 L 90.78 6.24 Z M 16.32 10.41 L 15.06 7.41 A 10.8 10.8 0 0 1 20.23 5.976 A 12.784 12.784 0 0 1 20.61 5.97 A 9.423 9.423 0 0 1 22.47 6.142 Q 23.542 6.358 24.362 6.846 A 4.752 4.752 0 0 1 25.485 7.77 Q 27.09 9.57 27.09 13.26 L 27.09 21.24 L 23.55 21.24 L 23.55 20.19 Q 22.348 21.48 20.143 21.509 A 7.755 7.755 0 0 1 20.04 21.51 A 7.622 7.622 0 0 1 18.343 21.332 Q 17.103 21.049 16.205 20.317 A 4.78 4.78 0 0 1 15.99 20.13 A 4.571 4.571 0 0 1 14.536 17.224 A 6.424 6.424 0 0 1 14.49 16.44 Q 14.49 14.19 15.975 12.84 A 5.03 5.03 0 0 1 18.273 11.668 A 7.449 7.449 0 0 1 19.95 11.49 A 6.175 6.175 0 0 1 21.515 11.68 A 4.772 4.772 0 0 1 23.19 12.48 A 6.645 6.645 0 0 0 23.064 11.658 Q 22.871 10.794 22.457 10.314 A 1.849 1.849 0 0 0 22.365 10.215 Q 21.846 9.696 20.876 9.576 A 5.104 5.104 0 0 0 20.25 9.54 Q 18.51 9.54 16.32 10.41 Z M 54.6 10.41 L 53.34 7.41 A 10.8 10.8 0 0 1 58.51 5.976 A 12.784 12.784 0 0 1 58.89 5.97 A 9.423 9.423 0 0 1 60.75 6.142 Q 61.822 6.358 62.642 6.846 A 4.752 4.752 0 0 1 63.765 7.77 Q 65.37 9.57 65.37 13.26 L 65.37 21.24 L 61.83 21.24 L 61.83 20.19 Q 60.628 21.48 58.423 21.509 A 7.755 7.755 0 0 1 58.32 21.51 A 7.622 7.622 0 0 1 56.623 21.332 Q 55.383 21.049 54.485 20.317 A 4.78 4.78 0 0 1 54.27 20.13 A 4.571 4.571 0 0 1 52.816 17.224 A 6.424 6.424 0 0 1 52.77 16.44 Q 52.77 14.19 54.255 12.84 A 5.03 5.03 0 0 1 56.553 11.668 A 7.449 7.449 0 0 1 58.23 11.49 A 6.175 6.175 0 0 1 59.795 11.68 A 4.772 4.772 0 0 1 61.47 12.48 A 6.645 6.645 0 0 0 61.344 11.658 Q 61.151 10.794 60.737 10.314 A 1.849 1.849 0 0 0 60.645 10.215 Q 60.126 9.696 59.156 9.576 A 5.104 5.104 0 0 0 58.53 9.54 Q 56.79 9.54 54.6 10.41 Z M 6 21.24 L 0 21.24 L 0 2.67 L 5.49 2.67 A 13.158 13.158 0 0 1 7.406 2.8 Q 9.365 3.089 10.575 4.02 A 4.386 4.386 0 0 1 12.268 7.006 A 6.522 6.522 0 0 1 12.33 7.92 A 5.055 5.055 0 0 1 12.081 9.546 A 4.101 4.101 0 0 1 10.56 11.58 Q 11.672 12.227 12.26 13.051 A 3.74 3.74 0 0 1 12.435 13.32 A 3.964 3.964 0 0 1 12.874 14.438 Q 13.02 15.06 13.02 15.81 A 5.909 5.909 0 0 1 12.553 18.249 Q 11.417 20.78 7.511 21.169 A 15.265 15.265 0 0 1 6 21.24 Z M 51.09 17.52 L 51.09 21.36 L 49.92 21.36 Q 48.544 21.36 47.62 20.977 A 3.036 3.036 0 0 1 46.575 20.28 A 3.159 3.159 0 0 1 45.924 19.226 Q 45.54 18.239 45.54 16.74 L 45.54 6.24 L 49.59 6.24 L 49.59 16.47 Q 49.618 17.065 49.714 17.285 A 0.488 0.488 0 0 0 49.725 17.31 Q 49.809 17.479 50.058 17.512 A 0.998 0.998 0 0 0 50.19 17.52 L 51.09 17.52 Z M 88.44 17.52 L 88.44 21.36 L 87.27 21.36 Q 85.894 21.36 84.97 20.977 A 3.036 3.036 0 0 1 83.925 20.28 A 3.159 3.159 0 0 1 83.274 19.226 Q 82.89 18.239 82.89 16.74 L 82.89 6.24 L 86.94 6.24 L 86.94 16.47 Q 86.968 17.065 87.064 17.285 A 0.488 0.488 0 0 0 87.075 17.31 Q 87.159 17.479 87.408 17.512 A 0.998 0.998 0 0 0 87.54 17.52 L 88.44 17.52 Z M 97.65 9.66 A 2.75 2.75 0 0 0 96.21 10.018 Q 95.106 10.68 94.848 12.568 A 9.375 9.375 0 0 0 94.77 13.83 A 10.08 10.08 0 0 0 94.823 14.9 Q 94.959 16.168 95.445 16.86 Q 96.117 17.815 97.576 17.82 A 4.501 4.501 0 0 0 97.59 17.82 Q 99.09 17.82 99.75 16.89 A 2.817 2.817 0 0 0 100.112 16.151 Q 100.356 15.422 100.4 14.33 A 12.39 12.39 0 0 0 100.41 13.83 A 11.529 11.529 0 0 0 100.361 12.722 Q 100.23 11.369 99.75 10.65 Q 99.09 9.66 97.65 9.66 Z M 4.14 13.53 L 4.14 17.79 L 5.73 17.79 A 7.145 7.145 0 0 0 6.79 17.718 Q 8.85 17.408 8.85 15.75 Q 8.85 13.53 5.7 13.53 L 4.14 13.53 Z M 4.08 6.09 L 4.08 10.2 L 5.7 10.2 A 4.805 4.805 0 0 0 6.664 10.112 Q 8.141 9.808 8.316 8.453 A 2.991 2.991 0 0 0 8.34 8.07 A 2.08 2.08 0 0 0 8.154 7.158 Q 7.639 6.09 5.7 6.09 L 4.08 6.09 Z M 48.517 0.18 A 2.394 2.394 0 0 0 47.58 0 A 3.006 3.006 0 0 0 47.477 0.002 A 2.278 2.278 0 0 0 45.885 0.675 A 2.236 2.236 0 0 0 45.358 1.491 A 2.528 2.528 0 0 0 45.21 2.37 A 2.98 2.98 0 0 0 45.218 2.589 A 2.227 2.227 0 0 0 45.87 4.05 A 2.173 2.173 0 0 0 46.726 4.584 A 2.58 2.58 0 0 0 47.55 4.71 A 3.006 3.006 0 0 0 47.653 4.708 A 2.278 2.278 0 0 0 49.245 4.035 A 2.236 2.236 0 0 0 49.772 3.219 A 2.528 2.528 0 0 0 49.92 2.34 Q 49.92 1.35 49.245 0.675 A 2.268 2.268 0 0 0 48.517 0.18 Z M 85.867 0.18 A 2.394 2.394 0 0 0 84.93 0 A 3.006 3.006 0 0 0 84.827 0.002 A 2.278 2.278 0 0 0 83.235 0.675 A 2.236 2.236 0 0 0 82.708 1.491 A 2.528 2.528 0 0 0 82.56 2.37 A 2.98 2.98 0 0 0 82.568 2.589 A 2.227 2.227 0 0 0 83.22 4.05 A 2.173 2.173 0 0 0 84.076 4.584 A 2.58 2.58 0 0 0 84.9 4.71 A 3.006 3.006 0 0 0 85.003 4.708 A 2.278 2.278 0 0 0 86.595 4.035 A 2.236 2.236 0 0 0 87.122 3.219 A 2.528 2.528 0 0 0 87.27 2.34 Q 87.27 1.35 86.595 0.675 A 2.268 2.268 0 0 0 85.867 0.18 Z M 20.76 14.82 A 5.227 5.227 0 0 0 19.925 14.881 Q 18.452 15.121 18.393 16.308 A 2.032 2.032 0 0 0 18.39 16.41 A 2.133 2.133 0 0 0 18.438 16.88 Q 18.554 17.391 18.945 17.655 A 1.684 1.684 0 0 0 19.364 17.853 Q 19.783 17.991 20.412 18.021 A 7.767 7.767 0 0 0 20.79 18.03 A 6.155 6.155 0 0 0 21.412 18.001 Q 22.038 17.937 22.422 17.734 A 1.436 1.436 0 0 0 22.575 17.64 A 1.253 1.253 0 0 0 23.081 16.869 A 2.021 2.021 0 0 0 23.13 16.41 A 2.003 2.003 0 0 0 23.081 15.952 Q 22.965 15.459 22.575 15.195 Q 22.088 14.866 21.059 14.826 A 7.627 7.627 0 0 0 20.76 14.82 Z M 59.04 14.82 A 5.227 5.227 0 0 0 58.205 14.881 Q 56.732 15.121 56.673 16.308 A 2.032 2.032 0 0 0 56.67 16.41 A 2.133 2.133 0 0 0 56.718 16.88 Q 56.834 17.391 57.225 17.655 A 1.684 1.684 0 0 0 57.644 17.853 Q 58.063 17.991 58.692 18.021 A 7.767 7.767 0 0 0 59.07 18.03 A 6.155 6.155 0 0 0 59.692 18.001 Q 60.318 17.937 60.702 17.734 A 1.436 1.436 0 0 0 60.855 17.64 A 1.253 1.253 0 0 0 61.361 16.869 A 2.021 2.021 0 0 0 61.41 16.41 A 2.003 2.003 0 0 0 61.361 15.952 Q 61.245 15.459 60.855 15.195 Q 60.368 14.866 59.339 14.826 A 7.627 7.627 0 0 0 59.04 14.82 Z" vector-effect="non-scaling-stroke"/></g></svg>